<?xml version="1.0" standalone="no"?>
<!DOCTYPE svg PUBLIC "-//W3C//DTD SVG 20010904//EN"
 "http://www.w3.org/TR/2001/REC-SVG-20010904/DTD/svg10.dtd">
<svg version="1.0" xmlns="http://www.w3.org/2000/svg"
 width="700.000000pt" height="700.000000pt" viewBox="0 0 700.000000 700.000000"
 preserveAspectRatio="xMidYMid meet">
<metadata>
Created by potrace 1.14, written by Peter Selinger 2001-2017
</metadata>
<g transform="translate(0.000000,700.000000) scale(0.100000,-0.100000)"
fill="#000000" stroke="none">
<path d="M3278 6996 c-1 -2 -39 -6 -83 -10 -398 -31 -840 -152 -1210 -332
-180 -87 -448 -247 -555 -331 -8 -6 -51 -40 -95 -74 -353 -275 -673 -651 -897
-1054 -49 -87 -148 -289 -148 -301 0 -2 -9 -23 -20 -47 -57 -123 -157 -435
-186 -582 -2 -11 -10 -54 -19 -95 -29 -147 -35 -194 -52 -370 -15 -163 -8
-592 12 -711 2 -13 6 -46 9 -74 21 -182 109 -547 165 -680 5 -11 25 -65 46
-120 63 -166 249 -531 312 -610 4 -6 34 -49 65 -95 171 -256 432 -534 708
-755 92 -74 370 -265 386 -265 4 0 15 -6 23 -14 26 -22 298 -158 411 -205 267
-111 589 -200 859 -237 25 -3 57 -8 71 -10 163 -25 682 -25 842 1 13 2 46 7
73 10 71 10 87 13 115 18 14 3 43 8 65 12 22 4 76 16 120 27 44 10 87 21 96
23 223 51 591 200 823 334 49 28 91 51 93 51 10 0 268 180 353 247 152 119
324 280 450 422 36 41 70 79 76 85 6 6 48 61 94 121 150 197 277 405 383 628
26 53 47 99 47 102 0 2 11 28 24 57 57 127 151 421 182 573 17 81 54 301 59
350 4 33 9 71 11 85 9 47 11 525 3 605 -15 165 -21 220 -24 225 -2 3 -6 30
-10 60 -9 75 -69 337 -99 435 -174 571 -466 1062 -881 1478 -384 385 -846 672
-1360 845 -168 57 -420 119 -555 137 -19 3 -46 7 -60 10 -13 2 -52 7 -86 11
-33 3 -74 8 -90 10 -32 5 -540 14 -546 10z m-727 -1016 c34 -81 51 -122 73
-172 8 -18 30 -71 49 -118 19 -47 78 -187 131 -312 53 -126 96 -231 96 -235 0
-5 -38 -23 -83 -42 -192 -79 -380 -206 -537 -361 -181 -179 -292 -344 -399
-592 -18 -43 -22 -47 -43 -39 -13 5 -95 39 -183 76 -88 37 -236 98 -328 137
-93 38 -188 77 -210 87 -23 10 -72 31 -109 46 l-66 27 36 87 c38 93 130 274
167 331 12 19 43 68 69 108 26 40 51 79 56 85 5 7 46 59 91 116 123 155 314
346 444 443 6 4 24 18 40 31 117 91 311 210 447 276 86 42 221 100 225 97 1
-1 16 -35 34 -76z m2055 26 c228 -101 414 -215 619 -380 112 -90 294 -268 374
-366 29 -36 59 -73 66 -82 108 -133 261 -387 335 -559 18 -41 38 -86 45 -102
17 -33 42 -19 -255 -141 -129 -54 -244 -101 -255 -106 -61 -28 -386 -160 -392
-160 -5 0 -23 38 -42 83 -80 190 -199 364 -361 527 -189 191 -334 288 -597
401 -18 8 -33 16 -33 19 0 5 142 353 174 425 7 17 55 132 107 258 51 125 99
227 105 227 6 0 56 -20 110 -44z m-927 -1472 c438 -77 771 -409 855 -854 14
-75 15 -288 1 -360 -65 -344 -289 -634 -599 -775 -273 -124 -599 -124 -872 0
-214 98 -403 281 -504 489 -226 467 -92 1010 325 1316 138 101 272 154 490
193 51 9 228 4 304 -9z m-1809 -1655 c0 -23 112 -245 166 -326 74 -114 110
-158 219 -271 160 -166 396 -325 588 -397 26 -10 50 -21 52 -25 3 -4 -13 -50
-36 -101 -34 -79 -87 -204 -120 -284 -4 -11 -17 -40 -27 -65 -11 -25 -32 -74
-47 -110 -14 -36 -32 -78 -40 -95 -7 -16 -34 -81 -60 -142 -26 -62 -53 -113
-60 -113 -22 0 -200 83 -320 148 -131 72 -350 217 -395 262 -3 3 -34 30 -70
60 -140 117 -331 322 -426 456 -89 125 -152 224 -214 339 -33 61 -141 298
-137 301 1 1 124 52 272 114 149 61 286 118 305 126 192 82 336 140 343 137 4
-2 7 -9 7 -14z m3411 -37 c48 -22 628 -266 720 -303 l56 -23 -24 -60 c-41
-102 -147 -307 -213 -412 -183 -291 -431 -555 -725 -772 -52 -38 -197 -129
-270 -169 -149 -83 -329 -162 -341 -151 -6 7 -374 897 -374 907 0 4 17 13 38
20 133 48 375 194 488 296 134 121 228 228 324 370 38 57 138 248 163 312 l17
43 49 -19 c27 -11 68 -29 92 -39z"/>
</g>
</svg>
