<svg width="750" height="330" viewBox="0 0 750 330" fill="none" xmlns="http://www.w3.org/2000/svg">
<path opacity="0.05" fill-rule="evenodd" clip-rule="evenodd" d="M5.70906 24.9052C10.4561 18.4526 17.5767 15.0564 27.0708 14.3772C44.3636 13.0188 54.1967 21.1695 56.5702 38.8292C67.0815 109.808 78.6101 169.919 90.8168 219.162L165.074 77.5447C171.856 64.6395 180.332 57.8473 190.505 57.1681C205.424 56.1493 214.579 65.6583 218.309 85.6953C226.786 130.863 237.636 169.239 250.521 201.842C259.337 115.581 274.256 53.4324 295.279 15.0565C300.365 5.54741 307.824 0.792893 317.658 0.113674C325.456 -0.565546 332.577 1.81172 339.019 6.90587C345.462 12 348.852 18.4525 349.531 26.2636C349.87 32.3765 348.852 37.4708 346.14 42.5649C332.916 67.0168 322.065 108.11 313.25 165.164C304.773 220.521 301.721 263.651 303.755 294.555C304.434 303.046 303.077 310.517 299.687 316.97C295.618 324.441 289.514 328.516 281.716 329.196C272.9 329.875 263.745 325.799 254.929 316.63C223.395 284.367 198.303 236.143 179.993 171.956C157.954 215.426 141.678 248.029 131.167 269.764C111.161 308.14 94.2075 327.837 79.9664 328.856C70.8114 329.535 63.0127 321.724 56.2312 305.423C38.9384 260.934 20.2893 175.013 0.2839 47.6591C-0.733323 38.8292 0.962018 31.0181 5.70906 24.9052ZM733.712 78.1331C721.495 56.6782 703.51 43.737 679.417 38.6287C672.97 37.2665 666.861 36.5854 661.092 36.5854C628.516 36.5854 602.047 53.6131 581.347 87.6686C563.701 116.616 554.878 148.628 554.878 183.705C554.878 209.928 560.308 232.405 571.167 251.135C583.383 272.59 601.368 285.531 625.461 290.64C631.909 292.002 638.017 292.683 643.786 292.683C676.702 292.683 703.171 275.655 723.532 241.6C741.177 212.312 750 180.3 750 145.222C750 118.659 744.571 96.5231 733.712 78.1331ZM690.955 172.467C686.204 194.944 677.72 211.631 665.165 222.869C655.324 231.724 646.161 235.47 637.678 233.767C629.534 232.064 622.747 224.912 617.657 211.631C613.585 201.074 611.549 190.516 611.549 180.64C611.549 172.126 612.227 163.612 613.924 155.78C616.978 141.817 622.747 128.195 631.909 115.254C643.107 98.5664 654.984 91.7553 667.201 94.1392C675.345 95.8419 682.132 102.994 687.222 116.275C691.294 126.832 693.33 137.39 693.33 147.266C693.33 156.12 692.312 164.634 690.955 172.467ZM468.035 38.6287C491.789 43.737 510.113 56.6782 522.33 78.1331C533.189 96.5231 538.618 118.659 538.618 145.222C538.618 180.3 529.795 212.312 512.149 241.6C491.789 275.655 465.32 292.683 432.404 292.683C426.635 292.683 420.527 292.002 414.079 290.64C389.986 285.531 372.001 272.59 359.785 251.135C348.926 232.405 343.496 209.928 343.496 183.705C343.496 148.628 352.319 116.616 369.965 87.6686C390.665 53.6131 417.133 36.5854 449.71 36.5854C455.479 36.5854 461.587 37.2665 468.035 38.6287ZM453.782 222.869C466.338 211.631 474.822 194.944 479.572 172.467C481.269 164.634 481.948 156.12 481.948 147.266C481.948 137.39 479.912 126.832 475.84 116.275C470.75 102.994 463.963 95.8419 455.818 94.1392C443.602 91.7553 431.725 98.5664 420.527 115.254C411.365 128.195 405.596 141.817 402.542 155.78C400.845 163.612 400.166 172.126 400.166 180.64C400.166 190.516 402.202 201.074 406.274 211.631C411.365 224.912 418.152 232.064 426.296 233.767C434.779 235.47 443.941 231.724 453.782 222.869Z" fill="white"/>
</svg>
